<svg width="18" height="18" viewBox="0 0 18 18" fill="none" xmlns="http://www.w3.org/2000/svg">
<path d="M16.875 3H1.125C0.504738 3 0 3.50474 0 4.125V13.875C0 14.4952 0.504738 15 1.125 15H16.875C17.4953 15 18 14.4952 18 13.875V4.125C18 3.50477 17.4953 3 16.875 3ZM17.25 13.875C17.25 14.082 17.082 14.25 16.875 14.25H1.125C0.918 14.25 0.749988 14.082 0.749988 13.875V4.125C0.749988 3.918 0.918 3.74999 1.125 3.74999H16.875C17.082 3.74999 17.25 3.918 17.25 4.125V13.875Z" fill="#A6B03B"/>
<path d="M17.7397 3.40726C17.6182 3.23925 17.3827 3.20177 17.2162 3.32327L9.66146 8.78477C9.26546 9.07203 8.73373 9.07277 8.33695 8.78403L0.785208 3.32327C0.617197 3.20177 0.382458 3.23928 0.261696 3.40726C0.140935 3.57527 0.178446 3.81001 0.345685 3.93151L7.89669 9.39153C8.2267 9.63154 8.61293 9.75153 8.99993 9.75153C9.38619 9.75153 9.77242 9.63154 10.1017 9.39153L17.6557 3.93077C17.823 3.81001 17.8612 3.57527 17.7397 3.40726Z" fill="#A6B03B"/>
<path d="M8.30028 8.7795C8.17804 8.61226 7.94478 8.57401 7.77603 8.69625L0.356264 14.082C0.189026 14.2043 0.151514 14.4383 0.273014 14.6063C0.346526 14.7075 0.460502 14.7608 0.576764 14.7608C0.652526 14.7608 0.729764 14.7375 0.797264 14.6895L8.21703 9.30375C8.38426 9.18151 8.42178 8.94751 8.30028 8.7795Z" fill="#A6B03B"/>
<path d="M17.6438 14.082L10.2248 8.69625C10.0553 8.57402 9.822 8.61149 9.7005 8.7795C9.579 8.94751 9.61652 9.18151 9.78375 9.30375L17.2027 14.6895C17.2687 14.7375 17.346 14.7608 17.4225 14.7608C17.5388 14.7608 17.6535 14.7075 17.727 14.6063C17.8485 14.4382 17.811 14.2042 17.6438 14.082Z" fill="#A6B03B"/>
</svg>
