<svg width="18" height="18" viewBox="0 0 18 18" fill="none" xmlns="http://www.w3.org/2000/svg">
<g clip-path="url(#clip0_30_87)">
<path d="M17.9884 14.8147C17.9312 14.3821 17.6815 14.0092 17.3034 13.7915L12.8627 11.2348C12.3188 10.9216 11.6289 11.0128 11.1849 11.4567L10.3103 12.3313C10.0775 12.5641 9.70928 12.5847 9.45391 12.3792C8.76436 11.8244 8.08543 11.2137 7.436 10.5643C6.78657 9.91484 6.17595 9.23595 5.62107 8.54636C5.41553 8.29095 5.43609 7.92275 5.66892 7.68996L6.54356 6.81528C6.98745 6.37144 7.07873 5.68154 6.7655 5.13755L4.20874 0.696881C3.99103 0.318772 3.61813 0.0691095 3.18559 0.0118838C2.75302 -0.0454585 2.32798 0.0988109 2.01946 0.407332L0.701523 1.72531C-0.218326 2.6452 -0.233099 4.32783 0.659925 6.46334C1.51862 8.5167 3.1211 10.7771 5.17209 12.8282C7.22315 14.8792 9.48357 16.4817 11.537 17.3404C12.5881 17.7799 13.5295 17.9996 14.3243 17.9996C15.1441 17.9996 15.8079 17.7658 16.275 17.2987L17.5929 15.9808C17.9014 15.6722 18.0456 15.2472 17.9884 14.8147ZM12.5718 11.7401L17.0124 14.2969C17.2321 14.4233 17.3771 14.6399 17.4103 14.8911C17.4382 15.102 17.3834 15.3096 17.2592 15.4768L11.3576 12.1087L11.5973 11.869C11.8551 11.6112 12.2559 11.5583 12.5718 11.7401ZM3.10908 0.590011C3.36034 0.62325 3.57692 0.768258 3.70335 0.987869L6.26011 5.42853C6.44205 5.74448 6.38903 6.14522 6.13124 6.40296L5.91108 6.62312L2.52443 0.741045C2.66286 0.638528 2.82844 0.582858 3.00105 0.582858C3.03685 0.582858 3.07297 0.585229 3.10908 0.590011ZM15.8626 16.8864C15.1318 17.6172 13.6372 17.5865 11.7619 16.8023C9.77693 15.9722 7.58311 14.4144 5.58449 12.4158C3.58586 10.4172 2.02802 8.22334 1.19793 6.23836C0.413684 4.36309 0.383088 2.86846 1.11388 2.13763L2.09228 1.1592L5.48403 7.05017L5.25657 7.27764C4.81279 7.72145 4.77415 8.42402 5.16672 8.91199C5.73466 9.61783 6.35944 10.3125 7.0236 10.9766C7.68784 11.6408 8.38248 12.2656 9.08828 12.8335C9.57617 13.2261 10.2787 13.1875 10.7226 12.7437L10.9302 12.5361L16.84 15.909L15.8626 16.8864Z" fill="#A6B03B"/>
</g>
<defs>
<clipPath id="clip0_30_87">
<rect width="18" height="18" fill="white"/>
</clipPath>
</defs>
</svg>
