<svg width="18" height="18" viewBox="0 0 18 18" fill="none" xmlns="http://www.w3.org/2000/svg">
<path d="M8.99999 0C5.48475 0 2.625 2.85975 2.625 6.37499C2.625 9.77474 8.45324 17.523 8.70074 17.8515C8.772 17.9453 8.88225 18 8.99999 18C9.11773 18 9.22798 17.9453 9.29924 17.8515C9.54674 17.523 15.375 9.77474 15.375 6.37499C15.375 2.85975 12.5152 0 8.99999 0ZM8.99999 16.9942C7.79624 15.3472 3.37499 9.11099 3.37499 6.37499C3.37499 3.27298 5.89798 0.749988 8.99999 0.749988C12.102 0.749988 14.625 3.27298 14.625 6.37499C14.625 9.10951 10.2037 15.3465 8.99999 16.9942Z" fill="#A6B03B"/>
<path d="M9 2.99997C7.13925 2.99997 5.625 4.51422 5.625 6.37497C5.625 8.23572 7.13925 9.74997 9 9.74997C10.8608 9.74997 12.375 8.23572 12.375 6.37497C12.375 4.51422 10.8608 2.99997 9 2.99997ZM9 8.99998C7.55251 8.99998 6.37499 7.82249 6.37499 6.37497C6.37499 4.92748 7.55248 3.74996 9 3.74996C10.4475 3.74996 11.625 4.92745 11.625 6.37497C11.625 7.82249 10.4475 8.99998 9 8.99998Z" fill="#A6B03B"/>
</svg>
