<svg width="95" height="56" viewBox="0 0 95 56" fill="none" xmlns="http://www.w3.org/2000/svg">
<path d="M24.2 44.3C24.2 47.1667 24.7333 49.1667 25.8 50.3C26.8667 51.3667 28.7333 51.9 31.4 51.9V54C24.2 53.7333 19.6 53.6 17.6 53.6C15.4 53.6 10.6 53.7 3.2 53.9L0.4 54V51.9C3.53333 51.9 5.86667 51.3 7.4 50.1C9 48.9 9.8 46.7667 9.8 43.7V19.3C9.8 16.1 9.5 13.7667 8.9 12.3C8.36667 10.7667 7.43333 9.76666 6.1 9.3C4.76667 8.76666 2.73333 8.5 2.83122e-07 8.5V6.3C5.8 6.16666 10.5667 5.73333 14.3 5C18.0333 4.2 21.3333 2.93333 24.2 1.2V44.3ZM67.0813 0.899998C72.3479 0.899998 77.0479 2 81.1813 4.2C85.3146 6.4 88.5146 9.5 90.7812 13.5C93.1146 17.5 94.2813 22.1 94.2813 27.3C94.2813 32.6333 93.0813 37.4333 90.6813 41.7C88.3479 45.9667 85.0146 49.3333 80.6813 51.8C76.4146 54.2 71.5146 55.4 65.9813 55.4C60.7813 55.4 56.1146 54.3 51.9813 52.1C47.8479 49.9 44.6146 46.8 42.2813 42.8C39.9479 38.8 38.7813 34.1667 38.7813 28.9C38.7813 23.6333 39.9479 18.8667 42.2813 14.6C44.6813 10.3333 48.0146 7 52.2813 4.6C56.5479 2.13333 61.4813 0.899998 67.0813 0.899998ZM66.1813 2.7C63.7813 2.7 61.6479 3.73333 59.7813 5.8C57.9146 7.86666 56.4479 10.8667 55.3813 14.8C54.3813 18.6667 53.8813 23.2667 53.8813 28.6C53.8813 37.0667 55.0813 43.3667 57.4813 47.5C59.9479 51.5667 63.0813 53.6 66.8813 53.6C69.2813 53.6 71.3813 52.5667 73.1813 50.5C75.0479 48.3667 76.5146 45.3667 77.5813 41.5C78.6479 37.5667 79.1813 32.9333 79.1813 27.6C79.1813 19.1333 77.9479 12.8667 75.4813 8.8C73.0813 4.73333 69.9813 2.7 66.1813 2.7Z" fill="#A6B03B"/>
</svg>
