<svg width="103" height="71" viewBox="0 0 103 71" fill="none" xmlns="http://www.w3.org/2000/svg">
<path d="M35.5 0.499999C35.5 8.3 35.6333 13.9 35.9 17.3C34.5 16.9667 29.8667 16.8 22 16.8H6.6L5 33.9C8.86667 31.2333 13.9 29.9 20.1 29.9C26.5 29.9 31.3333 31.3667 34.6 34.3C37.9333 37.2333 39.6 41.0333 39.6 45.7C39.6 50.6333 37.6667 55 33.8 58.8C29.9333 62.6667 24.9333 65.6333 18.8 67.7C12.7333 69.7667 6.46667 70.8 1.19209e-07 70.8V69C4.2 68.9333 8.2 68 12 66.2C15.8 64.4667 18.8667 61.8667 21.2 58.4C23.5333 55 24.7 50.9667 24.7 46.3C24.7 42.1 23.7 38.9 21.7 36.7C19.7667 34.4333 16.9333 33.3 13.2 33.3C11.4 33.3 9.8 33.5333 8.4 34C7 34.4667 5.6 35.2 4.2 36.2L2.8 35.3L6 4C7.33333 4.26666 9.13333 4.4 11.4 4.4H27.9C29.8333 4.4 31.1667 4.13333 31.9 3.6C32.7 2.99999 33.2 1.96666 33.4 0.499999H35.5ZM75.6984 2.9C80.9651 2.9 85.6651 4 89.7984 6.2C93.9318 8.4 97.1318 11.5 99.3984 15.5C101.732 19.5 102.898 24.1 102.898 29.3C102.898 34.6333 101.698 39.4333 99.2984 43.7C96.9651 47.9667 93.6318 51.3333 89.2984 53.8C85.0318 56.2 80.1318 57.4 74.5984 57.4C69.3984 57.4 64.7318 56.3 60.5984 54.1C56.4651 51.9 53.2318 48.8 50.8984 44.8C48.5651 40.8 47.3984 36.1667 47.3984 30.9C47.3984 25.6333 48.5651 20.8667 50.8984 16.6C53.2984 12.3333 56.6318 9 60.8984 6.6C65.1651 4.13333 70.0984 2.9 75.6984 2.9ZM74.7984 4.7C72.3984 4.7 70.2651 5.73333 68.3984 7.8C66.5318 9.86666 65.0651 12.8667 63.9984 16.8C62.9984 20.6667 62.4984 25.2667 62.4984 30.6C62.4984 39.0667 63.6984 45.3667 66.0984 49.5C68.5651 53.5667 71.6984 55.6 75.4984 55.6C77.8984 55.6 79.9984 54.5667 81.7984 52.5C83.6651 50.3667 85.1318 47.3667 86.1984 43.5C87.2651 39.5667 87.7984 34.9333 87.7984 29.6C87.7984 21.1333 86.5651 14.8667 84.0984 10.8C81.6984 6.73333 78.5984 4.7 74.7984 4.7Z" fill="#A6B03B"/>
</svg>
