<svg width="95" height="88" viewBox="0 0 95 88" fill="none" xmlns="http://www.w3.org/2000/svg">
<path d="M30.7 31C34.8333 34.5333 37.9333 37.3333 40 39.4C42.1333 41.4 44 43.8 45.6 46.6C47.2 49.3333 48 52.3 48 55.5C48 59.1667 46.9333 62.4333 44.8 65.3C42.7333 68.1667 39.8333 70.4 36.1 72C32.3667 73.6 28.1667 74.4 23.5 74.4C19.3 74.4 15.4333 73.7667 11.9 72.5C8.36667 71.1667 5.53333 69.2 3.4 66.6C1.33333 64 0.3 60.9 0.3 57.3C0.3 52.9667 1.76667 49.2 4.7 46C7.63333 42.8 11.6 40.1 16.6 37.9C12.4667 34.3667 9.26667 31.0333 7 27.9C4.73333 24.7 3.6 21.1 3.6 17.1C3.6 13.6333 4.56667 10.6667 6.5 8.2C8.43333 5.73333 11 3.9 14.2 2.7C17.4 1.43333 20.9333 0.799994 24.8 0.799994C30.5333 0.799994 35.2333 2.09999 38.9 4.7C42.5667 7.23333 44.4 10.6 44.4 14.8C44.4 18.0667 43.2333 21 40.9 23.6C38.6333 26.1333 35.2333 28.6 30.7 31ZM24 2.59999C21.8 2.59999 20.0333 3.36666 18.7 4.89999C17.4333 6.36666 16.8 8.36666 16.8 10.9C16.8 14.2333 17.8333 17.3333 19.9 20.2C22.0333 23.0667 25.1 26.2333 29.1 29.7C30.3667 27.9 31.3 25.7333 31.9 23.2C32.5 20.6 32.8 18.0667 32.8 15.6C32.8 11.5333 32 8.36666 30.4 6.1C28.8667 3.76666 26.7333 2.59999 24 2.59999ZM24 72.6C27.1333 72.6 29.6 71.6333 31.4 69.7C33.2 67.7 34.1 65.0667 34.1 61.8C34.1 58.8 33.3667 56.0333 31.9 53.5C30.4333 50.9667 28.7 48.7333 26.7 46.8C24.7 44.8667 21.8333 42.3333 18.1 39.2C14.5 43 12.7 48.4333 12.7 55.5C12.7 60.5667 13.5667 64.7 15.3 67.9C17.1 71.0333 20 72.6 24 72.6ZM90.5547 17.5C90.5547 25.3 90.688 30.9 90.9547 34.3C89.5547 33.9667 84.9214 33.8 77.0547 33.8H61.6547L60.0547 50.9C63.9214 48.2333 68.9547 46.9 75.1547 46.9C81.5547 46.9 86.388 48.3667 89.6547 51.3C92.988 54.2333 94.6547 58.0333 94.6547 62.7C94.6547 67.6333 92.7214 72 88.8547 75.8C84.988 79.6667 79.988 82.6333 73.8547 84.7C67.788 86.7667 61.5214 87.8 55.0547 87.8V86C59.2547 85.9333 63.2547 85 67.0547 83.2C70.8547 81.4667 73.9214 78.8667 76.2547 75.4C78.588 72 79.7547 67.9667 79.7547 63.3C79.7547 59.1 78.7547 55.9 76.7547 53.7C74.8214 51.4333 71.988 50.3 68.2547 50.3C66.4547 50.3 64.8547 50.5333 63.4547 51C62.0547 51.4667 60.6547 52.2 59.2547 53.2L57.8547 52.3L61.0547 21C62.388 21.2667 64.188 21.4 66.4547 21.4H82.9547C84.888 21.4 86.2214 21.1333 86.9547 20.6C87.7547 20 88.2547 18.9667 88.4547 17.5H90.5547Z" fill="#A6B03B"/>
</svg>
