<svg width="15" height="15" viewBox="0 0 15 15" fill="none" xmlns="http://www.w3.org/2000/svg">
<path d="M14.0625 2.5H0.9375C0.420615 2.5 0 2.92062 0 3.4375V11.5625C0 12.0794 0.420615 12.5 0.9375 12.5H14.0625C14.5794 12.5 15 12.0794 15 11.5625V3.4375C15 2.92064 14.5794 2.5 14.0625 2.5ZM14.375 11.5625C14.375 11.735 14.235 11.875 14.0625 11.875H0.9375C0.765 11.875 0.62499 11.735 0.62499 11.5625V3.4375C0.62499 3.265 0.765 3.12499 0.9375 3.12499H14.0625C14.235 3.12499 14.375 3.265 14.375 3.4375V11.5625Z" fill="#A6B03B"/>
<path d="M14.7832 2.83938C14.6819 2.69937 14.4857 2.66814 14.3469 2.76939L8.0513 7.32064C7.7213 7.56003 7.27819 7.56064 6.94754 7.32003L0.654422 2.76939C0.514412 2.66814 0.318796 2.6994 0.218162 2.83938C0.117527 2.97939 0.148787 3.17501 0.288152 3.27626L6.58066 7.82628C6.85567 8.02629 7.17752 8.12628 7.50002 8.12628C7.82191 8.12628 8.14376 8.02629 8.41816 7.82628L14.7132 3.27564C14.8525 3.17501 14.8844 2.97939 14.7832 2.83938Z" fill="#A6B03B"/>
<path d="M6.91682 7.31612C6.81495 7.17675 6.62057 7.14487 6.47994 7.24674L0.296805 11.7349C0.15744 11.8367 0.12618 12.0317 0.22743 12.1718C0.28869 12.2561 0.383671 12.3005 0.480555 12.3005C0.54369 12.3005 0.608055 12.2812 0.664305 12.2411L6.84744 7.75299C6.98681 7.65113 7.01807 7.45613 6.91682 7.31612Z" fill="#A6B03B"/>
<path d="M14.703 11.735L8.52051 7.24692C8.37927 7.14506 8.18488 7.17629 8.08363 7.3163C7.98238 7.45631 8.01364 7.65131 8.15301 7.75317L14.3355 12.2413C14.3905 12.2813 14.4549 12.3007 14.5186 12.3007C14.6155 12.3007 14.7111 12.2563 14.7724 12.1719C14.8737 12.0319 14.8424 11.8369 14.703 11.735Z" fill="#A6B03B"/>
</svg>
